<svg id="Layer_1" data-name="Layer 1" xmlns="http://www.w3.org/2000/svg" viewBox="0 0 1060 396"><polygon points="132 264.38 180.24 264.38 156.12 223.03 132 264.38"/><polygon points="189.88 165.15 247.76 264.38 286.35 264.38 209.18 132.07 189.88 165.15"/><polygon points="392.48 173.42 416.6 132.07 368.36 132.07 392.48 173.42"/><polygon points="262.24 132.07 339.42 264.38 358.71 231.3 300.83 132.07 262.24 132.07"/><rect x="448.38" y="132.08" width="33.08" height="132.3"/><polygon points="880.13 132.07 904.25 173.42 928.37 132.07 880.13 132.07"/><polygon points="779.47 132.07 837.36 231.3 837.36 264.38 870.43 264.38 870.43 221.85 818.06 132.07 779.47 132.07"/><rect x="522.56" y="132.08" width="33.08" height="132.3"/><path d="M582.65,132.08h-11a71.69,71.69,0,0,1,0,132.3h11a66.15,66.15,0,0,0,0-132.3Z"/><rect x="684.08" y="132.08" width="33.08" height="132.3"/><path d="M755.56,264.38H791.5v-33A71.89,71.89,0,0,1,755.56,264.38Z"/></svg>