<?xml version="1.0" encoding="utf-8"?>
<!-- Generator: Adobe Illustrator 17.1.0, SVG Export Plug-In . SVG Version: 6.00 Build 0)  -->
<!DOCTYPE svg PUBLIC "-//W3C//DTD SVG 1.1//EN" "http://www.w3.org/Graphics/SVG/1.1/DTD/svg11.dtd">
<svg version="1.1" id="Layer_1" xmlns="http://www.w3.org/2000/svg" xmlns:xlink="http://www.w3.org/1999/xlink" x="0px" y="0px"
	 viewBox="0 0 283.46 89.667" enable-background="new 0 0 283.46 89.667" xml:space="preserve">
<g>
	<path fill="#E73728" d="M77.339,58.686c-0.726,0-1.418,0.146-2.05,0.406l-5.121-4.59c0.081-0.369,0.134-0.738,0.129-1.098
		l-0.302-19.538c-0.007-0.476-0.101-0.965-0.258-1.443l4.119-2.441c0.94,0.797,2.154,1.28,3.483,1.28
		c2.977,0,5.391-2.413,5.391-5.391c0-2.977-2.413-5.391-5.391-5.391c-2.977,0-5.391,2.413-5.391,5.391
		c0,0.563,0.087,1.105,0.247,1.615L68.121,29.9c-0.314-0.292-0.653-0.548-1.014-0.738l-16.821-8.869
		c-0.326-0.172-0.694-0.304-1.079-0.411l-1.868-7.854c1.576-0.941,2.635-2.658,2.635-4.627c0-2.977-2.413-5.391-5.391-5.391
		c-2.977,0-5.391,2.413-5.391,5.391c0,2.929,2.338,5.308,5.249,5.383l1.649,6.932c-0.456,0.075-0.891,0.195-1.279,0.362
		l-19.138,8.246c-0.523,0.225-1,0.574-1.424,0.989l-7.249-2.53c0.005-0.097,0.015-0.193,0.015-0.291
		c0-2.977-2.413-5.391-5.391-5.391s-5.391,2.413-5.391,5.391s2.413,5.391,5.391,5.391c1.814,0,3.415-0.899,4.392-2.272l6.728,2.348
		c-0.075,0.32-0.129,0.643-0.132,0.964l-0.236,21.846c-0.004,0.377,0.056,0.759,0.149,1.138l-7.351,4.103
		c-0.946-0.822-2.178-1.323-3.53-1.323c-2.977,0-5.39,2.413-5.39,5.391s2.413,5.391,5.39,5.391c2.977,0,5.391-2.413,5.391-5.391
		c0-0.539-0.081-1.059-0.229-1.55l7.185-4.01c0.385,0.39,0.816,0.722,1.287,0.952l19.133,9.335c0.401,0.195,0.851,0.331,1.322,0.418
		l-1.597,8.417c-2.768,0.227-4.944,2.542-4.944,5.368c0,2.977,2.413,5.391,5.391,5.391c2.977,0,5.391-2.413,5.391-5.391
		c0-2.079-1.178-3.879-2.902-4.779l1.741-9.178c0.393-0.119,0.769-0.264,1.101-0.459l17.677-10.377
		c0.421-0.247,0.809-0.58,1.156-0.965l4.176,3.743c-0.612,0.874-0.974,1.937-0.974,3.085c0,2.977,2.414,5.391,5.391,5.391
		c2.977,0,5.391-2.413,5.391-5.391S80.316,58.686,77.339,58.686z M67.279,51.913L55.166,41.056l11.837-7.014L67.279,51.913z
		 M65.281,31.583l-11.648,6.902L50.085,23.57L65.281,31.583z M45.996,22.827c0.22-0.094,0.496-0.154,0.791-0.186l3.771,15.853
		l-22.609-7.891L45.996,22.827z M25.607,32.956l23.403,8.168L25.376,54.315L25.607,32.956z M45.725,66.112l-18.859-9.2L50.58,43.677
		l-4.288,22.608C46.081,66.247,45.886,66.191,45.725,66.112z M66.076,55.632l-16.561,9.722l4.108-21.66L66.52,55.253
		C66.379,55.41,66.228,55.542,66.076,55.632z"/>
	<g>
		<path fill="#575756" d="M115.221,19.34c0-1.333-0.815-2.099-2.988-2.099c-2.173,0-2.988,0.766-2.988,2.099v0.494
			c0,1.136,0.741,1.457,1.259,1.654l4.494,1.704c1.481,0.568,2.715,1.531,2.715,3.358v2.049c0,2.025-1.407,3.802-5.531,3.802
			c-4.123,0-5.555-1.778-5.555-3.802v-1.432c0-0.346,0.149-0.494,0.47-0.494h1.456c0.321,0,0.445,0.148,0.445,0.494v1.111
			c0,1.333,0.938,2.099,3.16,2.099c2.222,0,3.185-0.765,3.185-2.099v-1.161c0-1.234-1.111-1.654-2.074-2.025l-4.173-1.605
			c-1.086-0.42-2.197-1.531-2.197-3.062v-1.407c0-2.025,1.284-3.802,5.309-3.802s5.358,1.778,5.358,3.802v1.086
			c0,0.321-0.123,0.469-0.444,0.469h-1.457c-0.345,0-0.444-0.148-0.444-0.469V19.34z"/>
		<path fill="#575756" d="M128.084,30.994c-0.667,0.568-1.926,1.408-3.951,1.408c-2.272,0-3.481-1.309-3.481-3.136v-8.814
			c0-0.346,0.123-0.494,0.444-0.494h1.432c0.321,0,0.469,0.148,0.469,0.494v8.222c0,1.037,0.469,1.629,1.827,1.629
			c1.555,0,2.691-0.815,3.209-1.234v-8.617c0-0.346,0.123-0.494,0.444-0.494h1.457c0.321,0,0.444,0.148,0.444,0.494v11.284
			c0,0.346-0.123,0.469-0.444,0.469h-1.333c-0.346,0-0.445-0.123-0.47-0.469L128.084,30.994z"/>
		<path fill="#575756" d="M133.613,23.143c0-2.025,1.456-3.383,4.938-3.383c3.481,0,4.938,1.358,4.938,3.383v5.876
			c0,2.025-1.457,3.383-4.938,3.383c-3.481,0-4.938-1.358-4.938-3.383V23.143z M141.143,23.34c0-1.062-0.741-1.654-2.593-1.654
			c-1.852,0-2.592,0.593-2.592,1.654v5.481c0,1.062,0.741,1.654,2.592,1.654c1.852,0,2.593-0.593,2.593-1.654V23.34z"/>
		<path fill="#575756" d="M148.5,19.957c0.346,0,0.444,0.148,0.469,0.469l0.05,0.79c0.667-0.568,1.901-1.457,3.951-1.457
			c1.604,0,2.667,0.666,3.16,1.679c0.592-0.518,1.876-1.679,4.222-1.679c2.297,0,3.506,1.333,3.506,3.16v8.79
			c0,0.346-0.148,0.494-0.469,0.494h-1.407c-0.346,0-0.494-0.148-0.494-0.494v-8.222c0-1.012-0.469-1.629-1.827-1.629
			c-1.629,0-2.765,0.864-3.234,1.284c0.025,0.099,0.025,0.222,0.025,0.321v8.246c0,0.346-0.123,0.494-0.444,0.494h-1.433
			c-0.32,0-0.468-0.148-0.468-0.494v-8.222c0-1.012-0.47-1.629-1.827-1.629c-1.58,0-2.716,0.839-3.209,1.259v8.592
			c0,0.346-0.124,0.494-0.445,0.494h-1.431c-0.346,0-0.47-0.148-0.47-0.494V20.427c0-0.321,0.124-0.469,0.47-0.469H148.5z"/>
		<path fill="#575756" d="M176.373,26.155c0,0.296-0.123,0.444-0.42,0.444h-6.716v2.271c0,1.012,0.494,1.654,2.469,1.654
			c1.976,0,2.469-0.642,2.469-1.654v-0.271c0-0.321,0.123-0.469,0.469-0.469h1.259c0.321,0,0.469,0.148,0.469,0.469v0.42
			c0,2.025-1.21,3.383-4.716,3.383c-3.506,0-4.716-1.358-4.716-3.383v-5.876c0-2.025,1.259-3.383,4.765-3.383
			c3.481,0,4.667,1.358,4.667,3.383V26.155z M169.237,24.846h4.938v-1.555c0-0.988-0.617-1.654-2.469-1.654
			c-1.876,0-2.469,0.666-2.469,1.654V24.846z"/>
		<path fill="#575756" d="M181.211,19.957c0.346,0,0.445,0.148,0.469,0.469l0.05,0.79c0.691-0.592,2.049-1.457,4.099-1.457
			c2.296,0,3.481,1.333,3.481,3.16v8.79c0,0.346-0.123,0.494-0.444,0.494h-1.432c-0.321,0-0.469-0.148-0.469-0.494v-8.222
			c0-1.012-0.47-1.629-1.827-1.629c-1.58,0-2.815,0.839-3.359,1.259v8.592c0,0.346-0.123,0.494-0.444,0.494h-1.433
			c-0.346,0-0.468-0.148-0.468-0.494V20.427c0-0.321,0.123-0.469,0.468-0.469H181.211z"/>
		<path fill="#575756" d="M112.357,43.989c0.321,0,0.469,0.124,0.469,0.445v0.987c0,0.346-0.148,0.494-0.469,0.494h-2.543v6.642
			c0,1.037,0.642,1.629,2.494,1.629h0.47c0.321,0,0.468,0.148,0.468,0.494v1.037c0,0.346-0.147,0.469-0.468,0.469h-0.816
			c-3.481,0-4.518-1.21-4.518-3.383v-6.889h-1.358c-0.346,0-0.47-0.148-0.47-0.494v-0.864c0-0.321,0.124-0.444,0.47-0.469
			l1.21-0.099h0.148v-2.494c0-0.346,0.148-0.494,0.469-0.494h1.457c0.321,0,0.444,0.148,0.444,0.494v2.494H112.357z"/>
		<path fill="#575756" d="M117.936,41.644c0,0.321-0.123,0.469-0.444,0.469h-1.432c-0.346,0-0.469-0.148-0.469-0.469v-2.222
			c0-0.345,0.123-0.494,0.469-0.494h1.432c0.321,0,0.444,0.148,0.444,0.494V41.644z M117.936,55.693
			c0,0.346-0.123,0.494-0.444,0.494h-1.432c-0.346,0-0.469-0.148-0.469-0.494V44.434c0-0.346,0.123-0.494,0.469-0.494h1.432
			c0.321,0,0.444,0.148,0.444,0.494V55.693z"/>
		<path fill="#575756" d="M130.601,50.138c0,0.296-0.124,0.444-0.42,0.444h-6.716v2.271c0,1.012,0.494,1.654,2.469,1.654
			c1.975,0,2.469-0.642,2.469-1.654v-0.271c0-0.321,0.123-0.469,0.469-0.469h1.259c0.321,0,0.469,0.148,0.469,0.469v0.42
			c0,2.025-1.21,3.383-4.716,3.383s-4.716-1.358-4.716-3.383v-5.876c0-2.025,1.259-3.383,4.765-3.383
			c3.481,0,4.666,1.358,4.666,3.383V50.138z M123.466,48.829h4.938v-1.555c0-0.988-0.617-1.654-2.469-1.654
			c-1.876,0-2.469,0.666-2.469,1.654V48.829z"/>
		<path fill="#575756" d="M140.97,54.952c-0.716,0.543-2.049,1.432-4.099,1.432c-2.395,0-3.481-1.334-3.481-3.358v-5.926
			c0-2.025,1.086-3.358,3.481-3.358c2,0,3.309,0.864,4.049,1.407v-5.728c0-0.345,0.099-0.494,0.445-0.494h1.431
			c0.346,0,0.47,0.148,0.47,0.494v16.271c0,0.346-0.124,0.494-0.47,0.494h-1.308c-0.346,0-0.444-0.148-0.469-0.494L140.97,54.952z
			 M135.736,52.656c0,0.864,0.419,1.605,1.827,1.605c1.555,0,2.815-0.864,3.357-1.259V47.15c-0.543-0.42-1.802-1.284-3.357-1.284
			c-1.408,0-1.827,0.741-1.827,1.605V52.656z"/>
		<path fill="#575756" d="M155.931,50.138c0,0.296-0.123,0.444-0.42,0.444h-6.716v2.271c0,1.012,0.494,1.654,2.469,1.654
			c1.976,0,2.469-0.642,2.469-1.654v-0.271c0-0.321,0.123-0.469,0.469-0.469h1.259c0.321,0,0.469,0.148,0.469,0.469v0.42
			c0,2.025-1.21,3.383-4.716,3.383c-3.506,0-4.716-1.358-4.716-3.383v-5.876c0-2.025,1.259-3.383,4.765-3.383
			c3.481,0,4.667,1.358,4.667,3.383V50.138z M148.795,48.829h4.938v-1.555c0-0.988-0.617-1.654-2.469-1.654
			c-1.876,0-2.469,0.666-2.469,1.654V48.829z"/>
		<path fill="#575756" d="M164.497,43.989c0.321,0,0.47,0.124,0.47,0.445v0.987c0,0.346-0.149,0.494-0.47,0.494h-2.543v6.642
			c0,1.037,0.642,1.629,2.494,1.629h0.469c0.321,0,0.469,0.148,0.469,0.494v1.037c0,0.346-0.148,0.469-0.469,0.469h-0.815
			c-3.481,0-4.518-1.21-4.518-3.383v-6.889h-1.358c-0.346,0-0.469-0.148-0.469-0.494v-0.864c0-0.321,0.123-0.444,0.469-0.469
			l1.21-0.099h0.149v-2.494c0-0.346,0.147-0.494,0.468-0.494h1.458c0.321,0,0.444,0.148,0.444,0.494v2.494H164.497z"/>
		<path fill="#575756" d="M167.385,47.125c0-2.025,1.457-3.383,4.938-3.383s4.938,1.358,4.938,3.383v5.876
			c0,2.025-1.456,3.383-4.938,3.383s-4.938-1.358-4.938-3.383V47.125z M174.916,47.323c0-1.062-0.741-1.654-2.593-1.654
			s-2.593,0.593-2.593,1.654v5.481c0,1.062,0.741,1.654,2.593,1.654s2.593-0.593,2.593-1.654V47.323z"/>
		<path fill="#575756" d="M182.84,41.644c0,0.321-0.123,0.469-0.444,0.469h-1.432c-0.346,0-0.469-0.148-0.469-0.469v-2.222
			c0-0.345,0.123-0.494,0.469-0.494h1.432c0.321,0,0.444,0.148,0.444,0.494V41.644z M182.84,55.693c0,0.346-0.123,0.494-0.444,0.494
			h-1.432c-0.346,0-0.469-0.148-0.469-0.494V44.434c0-0.346,0.123-0.494,0.469-0.494h1.432c0.321,0,0.444,0.148,0.444,0.494V55.693z
			"/>
		<path fill="#575756" d="M188.122,43.94c0.346,0,0.445,0.148,0.47,0.469l0.05,0.79c0.666-0.568,1.901-1.457,3.95-1.457
			c1.605,0,2.667,0.666,3.16,1.679c0.592-0.518,1.876-1.679,4.223-1.679c2.296,0,3.506,1.333,3.506,3.16v8.79
			c0,0.346-0.149,0.494-0.47,0.494h-1.407c-0.346,0-0.495-0.148-0.495-0.494v-8.222c0-1.012-0.468-1.629-1.827-1.629
			c-1.63,0-2.765,0.864-3.235,1.284c0.025,0.099,0.025,0.222,0.025,0.321v8.246c0,0.346-0.123,0.494-0.444,0.494h-1.432
			c-0.321,0-0.469-0.148-0.469-0.494v-8.222c0-1.012-0.469-1.629-1.827-1.629c-1.58,0-2.716,0.839-3.21,1.259v8.592
			c0,0.346-0.123,0.494-0.444,0.494h-1.432c-0.346,0-0.469-0.148-0.469-0.494V44.409c0-0.321,0.123-0.469,0.469-0.469H188.122z"/>
		<path fill="#575756" d="M209.182,41.644c0,0.321-0.124,0.469-0.445,0.469h-1.431c-0.346,0-0.47-0.148-0.47-0.469v-2.222
			c0-0.345,0.124-0.494,0.47-0.494h1.431c0.321,0,0.445,0.148,0.445,0.494V41.644z M209.182,55.693c0,0.346-0.124,0.494-0.445,0.494
			h-1.431c-0.346,0-0.47-0.148-0.47-0.494V44.434c0-0.346,0.124-0.494,0.47-0.494h1.431c0.321,0,0.445,0.148,0.445,0.494V55.693z"/>
		<path fill="#575756" d="M218.193,43.989c0.321,0,0.469,0.124,0.469,0.445v0.987c0,0.346-0.148,0.494-0.469,0.494h-2.543v6.642
			c0,1.037,0.642,1.629,2.494,1.629h0.469c0.321,0,0.469,0.148,0.469,0.494v1.037c0,0.346-0.148,0.469-0.469,0.469h-0.815
			c-3.481,0-4.519-1.21-4.519-3.383v-6.889h-1.358c-0.345,0-0.469-0.148-0.469-0.494v-0.864c0-0.321,0.124-0.444,0.469-0.469
			l1.21-0.099h0.147v-2.494c0-0.346,0.149-0.494,0.47-0.494h1.456c0.321,0,0.445,0.148,0.445,0.494v2.494H218.193z"/>
		<path fill="#575756" d="M226.932,43.989c0.321,0,0.469,0.124,0.469,0.445v0.987c0,0.346-0.148,0.494-0.469,0.494h-2.543v6.642
			c0,1.037,0.642,1.629,2.494,1.629h0.469c0.321,0,0.469,0.148,0.469,0.494v1.037c0,0.346-0.148,0.469-0.469,0.469h-0.814
			c-3.481,0-4.519-1.21-4.519-3.383v-6.889h-1.358c-0.346,0-0.469-0.148-0.469-0.494v-0.864c0-0.321,0.123-0.444,0.469-0.469
			l1.21-0.099h0.148v-2.494c0-0.346,0.148-0.494,0.469-0.494h1.457c0.321,0,0.444,0.148,0.444,0.494v2.494H226.932z"/>
		<path fill="#575756" d="M230.067,47.076c0-1.975,1.283-3.333,4.666-3.333c3.481,0,4.666,1.358,4.666,3.333v8.617
			c0,0.346-0.123,0.494-0.444,0.494h-1.284c-0.345,0-0.444-0.148-0.469-0.494l-0.049-0.716c-0.716,0.568-2.025,1.408-3.902,1.408
			c-2.296,0-3.481-1.383-3.481-2.988v-1.185c0-1.605,1.136-2.987,3.432-2.987h3.901v-1.901c0-1.012-0.519-1.679-2.395-1.679
			s-2.444,0.593-2.444,1.605v0.198c0,0.345-0.124,0.494-0.469,0.494h-1.284c-0.321,0-0.444-0.148-0.444-0.494V47.076z
			 M237.103,53.174v-2.123h-3.407c-1.235,0-1.63,0.543-1.63,1.506v0.494c0,0.963,0.543,1.383,1.778,1.383
			C235.35,54.434,236.535,53.619,237.103,53.174z"/>
		<path fill="#575756" d="M245.101,57.841c0,2.025-1.407,3.383-4.889,3.383h-0.198c-0.321,0-0.469-0.123-0.469-0.469v-1.037
			c0-0.321,0.148-0.469,0.469-0.469h0.198c1.852,0,2.543-0.618,2.543-1.655v-13.16c0-0.346,0.099-0.494,0.444-0.494h1.432
			c0.321,0,0.469,0.148,0.469,0.494V57.841z M245.101,41.644c0,0.321-0.123,0.469-0.444,0.469H243.2
			c-0.321,0-0.444-0.148-0.444-0.469v-2.222c0-0.345,0.123-0.494,0.444-0.494h1.457c0.321,0,0.444,0.148,0.444,0.494V41.644z"/>
		<path fill="#575756" d="M248.483,47.076c0-1.975,1.283-3.333,4.666-3.333c3.481,0,4.666,1.358,4.666,3.333v8.617
			c0,0.346-0.123,0.494-0.444,0.494h-1.284c-0.345,0-0.444-0.148-0.469-0.494l-0.049-0.716c-0.716,0.568-2.025,1.408-3.902,1.408
			c-2.296,0-3.481-1.383-3.481-2.988v-1.185c0-1.605,1.136-2.987,3.432-2.987h3.901v-1.901c0-1.012-0.519-1.679-2.395-1.679
			s-2.444,0.593-2.444,1.605v0.198c0,0.345-0.124,0.494-0.469,0.494h-1.284c-0.321,0-0.444-0.148-0.444-0.494V47.076z
			 M255.52,53.174v-2.123h-3.407c-1.235,0-1.63,0.543-1.63,1.506v0.494c0,0.963,0.543,1.383,1.778,1.383
			C253.767,54.434,254.952,53.619,255.52,53.174z"/>
		<path fill="#575756" d="M263.518,41.644c0,0.321-0.123,0.469-0.444,0.469h-1.432c-0.346,0-0.469-0.148-0.469-0.469v-2.222
			c0-0.345,0.123-0.494,0.469-0.494h1.432c0.321,0,0.444,0.148,0.444,0.494V41.644z M263.518,55.693
			c0,0.346-0.123,0.494-0.444,0.494h-1.432c-0.346,0-0.469-0.148-0.469-0.494V44.434c0-0.346,0.123-0.494,0.469-0.494h1.432
			c0.321,0,0.444,0.148,0.444,0.494V55.693z"/>
		<path fill="#575756" d="M268.801,43.94c0.345,0,0.444,0.148,0.469,0.469l0.049,0.79c0.692-0.592,2.049-1.457,4.099-1.457
			c2.297,0,3.481,1.333,3.481,3.16v8.79c0,0.346-0.123,0.494-0.444,0.494h-1.432c-0.321,0-0.469-0.148-0.469-0.494v-8.222
			c0-1.012-0.469-1.629-1.827-1.629c-1.58,0-2.815,0.839-3.358,1.259v8.592c0,0.346-0.123,0.494-0.444,0.494h-1.432
			c-0.346,0-0.469-0.148-0.469-0.494V44.409c0-0.321,0.123-0.469,0.469-0.469H268.801z"/>
		<path fill="#575756" d="M109.196,79.675c0,0.346-0.123,0.494-0.444,0.494h-1.432c-0.346,0-0.469-0.148-0.469-0.494V63.404
			c0-0.345,0.123-0.494,0.469-0.494h1.432c0.321,0,0.444,0.149,0.444,0.494V79.675z"/>
		<path fill="#575756" d="M115.047,65.627c0,0.321-0.123,0.469-0.444,0.469h-1.432c-0.346,0-0.469-0.148-0.469-0.469v-2.222
			c0-0.345,0.123-0.494,0.469-0.494h1.432c0.321,0,0.444,0.149,0.444,0.494V65.627z M115.047,79.675
			c0,0.346-0.123,0.494-0.444,0.494h-1.432c-0.346,0-0.469-0.148-0.469-0.494V68.417c0-0.346,0.123-0.494,0.469-0.494h1.432
			c0.321,0,0.444,0.148,0.444,0.494V79.675z"/>
		<path fill="#575756" d="M120.898,65.627c0,0.321-0.123,0.469-0.444,0.469h-1.432c-0.346,0-0.469-0.148-0.469-0.469v-2.222
			c0-0.345,0.123-0.494,0.469-0.494h1.432c0.321,0,0.444,0.149,0.444,0.494V65.627z M120.898,79.675
			c0,0.346-0.123,0.494-0.444,0.494h-1.432c-0.346,0-0.469-0.148-0.469-0.494V68.417c0-0.346,0.123-0.494,0.469-0.494h1.432
			c0.321,0,0.444,0.148,0.444,0.494V79.675z"/>
		<path fill="#575756" d="M129.91,67.972c0.321,0,0.469,0.124,0.469,0.445v0.987c0,0.346-0.148,0.494-0.469,0.494h-2.543v6.642
			c0,1.037,0.642,1.63,2.494,1.63h0.47c0.321,0,0.468,0.148,0.468,0.494V79.7c0,0.346-0.147,0.469-0.468,0.469h-0.816
			c-3.481,0-4.518-1.21-4.518-3.382v-6.889h-1.358c-0.346,0-0.47-0.148-0.47-0.494V68.54c0-0.321,0.124-0.444,0.47-0.469l1.21-0.099
			h0.148v-2.494c0-0.346,0.148-0.494,0.469-0.494h1.457c0.321,0,0.444,0.148,0.444,0.494v2.494H129.91z"/>
		<path fill="#575756" d="M138.649,67.972c0.321,0,0.469,0.124,0.469,0.445v0.987c0,0.346-0.148,0.494-0.469,0.494h-2.543v6.642
			c0,1.037,0.642,1.63,2.494,1.63h0.468c0.321,0,0.47,0.148,0.47,0.494V79.7c0,0.346-0.149,0.469-0.47,0.469h-0.814
			c-3.481,0-4.519-1.21-4.519-3.382v-6.889h-1.358c-0.346,0-0.469-0.148-0.469-0.494V68.54c0-0.321,0.123-0.444,0.469-0.469
			l1.21-0.099h0.148v-2.494c0-0.346,0.148-0.494,0.469-0.494h1.457c0.321,0,0.444,0.148,0.444,0.494v2.494H138.649z"/>
		<path fill="#575756" d="M141.537,71.108c0-2.025,1.456-3.383,4.938-3.383s4.938,1.358,4.938,3.383v5.876
			c0,2.025-1.457,3.383-4.938,3.383s-4.938-1.358-4.938-3.383V71.108z M149.068,71.305c0-1.062-0.741-1.654-2.593-1.654
			c-1.852,0-2.592,0.592-2.592,1.654v5.482c0,1.062,0.741,1.654,2.592,1.654c1.852,0,2.593-0.592,2.593-1.654V71.305z"/>
	</g>
</g>
</svg>
